<?xml version="1.0" encoding="utf-8"?>
<!-- Generator: Adobe Adobe Illustrator 29.2.0, SVG Export Plug-In . SVG Version: 6.00 Build 0)  -->
<svg version="1.1" id="Layer_1" xmlns="http://www.w3.org/2000/svg" xmlns:xlink="http://www.w3.org/1999/xlink" x="0px" y="0px"
	 width="283.46px" height="283.46px" viewBox="0 0 283.46 283.46" style="enable-background:new 0 0 283.46 283.46;"
	 xml:space="preserve">
<style type="text/css">
	.st0{fill:none;stroke:#000000;stroke-miterlimit:10;}
	.st1{fill:none;stroke:#000000;stroke-width:0.3;stroke-miterlimit:10;}
	.st2{fill:none;stroke:#000000;stroke-width:0.1;stroke-miterlimit:10;}
</style>
<g>
	<g>
		<line class="st0" x1="54.39" y1="137.1" x2="68.99" y2="137.1"/>
		<polyline class="st0" points="121.24,89.02 121.24,95.72 124.21,105.83 134.82,121.07 144.24,137.68 154.35,154.9 165.83,163.38 
			181.93,171.08 195.09,174.37 214.13,177.59 225.6,181.19 229.37,179.65 227.66,174.37 225.6,171.08 224.06,174.37 224.06,179.65 
					"/>
		<polyline class="st0" points="134.65,84.89 133.11,95.04 133.11,107.68 133.11,118.21 		"/>
		<polyline class="st0" points="184.85,171.78 186.21,159.15 187.75,140.08 186.21,117.3 183.98,97.78 183.98,85.62 185.64,77.69 		
			"/>
		<polyline class="st0" points="209.54,81.38 210.86,85.5 216.83,103.6 220.74,126.44 223,143.51 225.06,157.09 245.84,172.11 
			255.09,182.6 259.62,189.39 258.59,196.59 253.45,205.23 245.01,211.61 233.49,214.9 216.83,214.9 211.89,213.67 209.42,225.4 
			201.11,235.33 188.02,249.06 178.97,256.05 166.63,260.78 157.16,262.43 150.73,265.78 143.93,265.78 133.3,273.13 119.51,274.98 
			104.91,273.13 92.56,267.57 77.34,257.7 68.49,249.06 61.29,234.24 56.97,214.9 56.97,204.41 61.29,193.3 64.99,186.31 
			62.32,183.63 59.23,189.39 53.68,194.12 45.24,195.15 40.3,194.12 33.93,194.12 29.61,190.42 25.7,183.63 23.85,173.35 
			23.85,160.31 27.14,155.64 23.85,154.62 25.7,138.78 27.14,131.72 33.93,119.44 40.3,108.94 49.97,103.6 62.32,98.66 75.9,97.22 
			80.79,95.61 75.9,90.02 65.4,90.02 60.26,85.5 67.46,81.38 74.25,77.27 82.48,76.24 88.45,79.53 95.24,85.5 101.2,79.53 
			110.42,74.45 117.21,71.26 122.19,79.53 122.19,85.5 132.89,85.5 139.47,74.45 143.72,67.01 		"/>
		<polyline class="st0" points="80.71,97 82.43,104 81.43,112.51 78.38,120.96 72.27,132.82 67.22,139.05 60.17,147.51 52.65,154.9 
					"/>
		<polyline class="st0" points="62.24,182 68.7,170.16 77.83,151.69 89.4,133.43 99.95,118.21 		"/>
		<polyline class="st0" points="95.46,89.02 94.07,99.33 95.46,107.45 101.98,121.86 112.94,140.53 125.73,163.06 129.18,168.53 
			136.28,178.68 149.27,194.71 163.27,205.27 171.59,208.31 190.06,209.32 205.48,210.95 210.35,212.57 		"/>
		<polyline class="st0" points="128.15,169.56 128.15,184.25 125.54,200.21 122.41,211.47 119.91,221.8 117.09,223.05 
			117.09,212.57 118.5,198.18 125.54,191.29 		"/>
		<polyline class="st0" points="52.65,154.9 49.57,150.8 50.42,147.17 51.11,141.6 54.39,137.1 		"/>
		<line class="st1" x1="90.03" y1="266.16" x2="64.4" y2="240.53"/>
		<line class="st1" x1="98.2" y1="269.6" x2="61.58" y2="232.98"/>
		<line class="st1" x1="78.05" y1="244.72" x2="59.48" y2="226.15"/>
		<line class="st1" x1="75.03" y1="236.97" x2="58.47" y2="220.41"/>
		<line class="st1" x1="75.03" y1="232.24" x2="57.33" y2="214.54"/>
		<line class="st1" x1="70.57" y1="223.05" x2="57.33" y2="209.81"/>
		<line class="st1" x1="66.77" y1="214.52" x2="57.33" y2="205.07"/>
		<line class="st1" x1="62.05" y1="205.07" x2="58.47" y2="201.49"/>
		<line class="st1" x1="167.65" y1="206.59" x2="129.39" y2="168.32"/>
		<line class="st1" x1="174.56" y1="208.76" x2="122.01" y2="156.22"/>
		<line class="st1" x1="190.66" y1="82.94" x2="186.03" y2="78.32"/>
		<line class="st1" x1="190.62" y1="87.64" x2="184.77" y2="81.79"/>
		<line class="st1" x1="190.62" y1="92.37" x2="183.92" y2="85.67"/>
		<line class="st1" x1="190.62" y1="97.1" x2="183.92" y2="90.4"/>
		<line class="st1" x1="190.62" y1="101.83" x2="183.92" y2="95.13"/>
		<line class="st1" x1="190.62" y1="106.56" x2="183.92" y2="99.86"/>
		<line class="st1" x1="190.62" y1="111.29" x2="184.77" y2="105.44"/>
		<line class="st1" x1="190.62" y1="116.02" x2="185.89" y2="111.29"/>
		<line class="st1" x1="190.62" y1="120.75" x2="185.89" y2="116.02"/>
		<line class="st1" x1="190.62" y1="125.49" x2="186.54" y2="121.4"/>
		<line class="st1" x1="190.62" y1="130.22" x2="186.54" y2="126.13"/>
		<line class="st1" x1="190.62" y1="135.89" x2="187.27" y2="132.54"/>
		<line class="st1" x1="190.62" y1="140.62" x2="187.27" y2="137.27"/>
		<line class="st1" x1="190.62" y1="145.35" x2="187.27" y2="142.01"/>
		<line class="st1" x1="190.62" y1="150.09" x2="187.27" y2="146.74"/>
		<line class="st1" x1="190.62" y1="154.82" x2="187.27" y2="151.47"/>
		<line class="st1" x1="190.62" y1="159.55" x2="186.31" y2="155.23"/>
		<line class="st1" x1="190.62" y1="164.28" x2="186.24" y2="159.9"/>
		<line class="st1" x1="190.62" y1="169.01" x2="185.76" y2="164.15"/>
		<line class="st1" x1="190.62" y1="173.74" x2="185.13" y2="168.25"/>
		<line class="st1" x1="154.64" y1="198.31" x2="144.92" y2="188.59"/>
		<line class="st1" x1="46.99" y1="194.74" x2="23.87" y2="171.61"/>
		<line class="st1" x1="42" y1="194.48" x2="24.81" y2="177.29"/>
		<line class="st1" x1="36.92" y1="194.12" x2="25.76" y2="182.97"/>
		<line class="st2" x1="58.46" y1="149.19" x2="50.99" y2="141.72"/>
		<line class="st2" x1="59.41" y1="148.25" x2="51.93" y2="140.77"/>
		<line class="st2" x1="60.35" y1="147.3" x2="52.88" y2="139.83"/>
		<line class="st2" x1="61.3" y1="146.35" x2="53.06" y2="138.12"/>
		<line class="st2" x1="62.24" y1="145.41" x2="54.01" y2="137.17"/>
		<line class="st2" x1="63.19" y1="144.46" x2="55.82" y2="137.1"/>
		<line class="st2" x1="63.8" y1="143.18" x2="57.61" y2="136.99"/>
		<line class="st2" x1="64.75" y1="142.24" x2="59.68" y2="137.17"/>
		<line class="st2" x1="65.69" y1="141.29" x2="61.58" y2="137.17"/>
		<line class="st2" x1="66.37" y1="140.07" x2="63.29" y2="136.99"/>
		<line class="st2" x1="67.23" y1="139.04" x2="65.18" y2="136.99"/>
		<line class="st2" x1="57.5" y1="150.13" x2="50.99" y2="143.61"/>
		<line class="st2" x1="56.56" y1="151.08" x2="50.78" y2="145.3"/>
		<line class="st2" x1="55.6" y1="152.01" x2="50.53" y2="146.93"/>
		<line class="st2" x1="54.65" y1="152.95" x2="50.12" y2="148.43"/>
		<line class="st2" x1="53.69" y1="153.88" x2="50.12" y2="150.32"/>
		<line class="st2" x1="125.21" y1="201.75" x2="120.09" y2="196.63"/>
		<line class="st2" x1="227.05" y1="180.59" x2="224.16" y2="177.7"/>
		<line class="st2" x1="225.68" y1="181.11" x2="223.61" y2="179.04"/>
		<line class="st2" x1="228.34" y1="179.99" x2="224.16" y2="175.81"/>
		<line class="st2" x1="229.29" y1="179.04" x2="224.13" y2="173.89"/>
		<line class="st2" x1="228.34" y1="176.21" x2="224.72" y2="172.59"/>
		<line class="st2" x1="125.64" y1="200.28" x2="120.94" y2="195.59"/>
		<line class="st2" x1="125.81" y1="198.56" x2="122" y2="194.75"/>
		<line class="st2" x1="125.68" y1="196.54" x2="122.96" y2="193.82"/>
		<line class="st2" x1="126.58" y1="195.55" x2="123.84" y2="192.81"/>
		<line class="st2" x1="126.61" y1="193.69" x2="124.74" y2="191.82"/>
		<line class="st2" x1="124.68" y1="203.11" x2="119.13" y2="197.56"/>
		<line class="st2" x1="124.68" y1="205.01" x2="118.63" y2="198.96"/>
		<line class="st2" x1="123.72" y1="205.94" x2="118.65" y2="200.87"/>
		<line class="st2" x1="123.38" y1="207.49" x2="118.25" y2="202.36"/>
		<line class="st2" x1="122.88" y1="208.89" x2="118.25" y2="204.25"/>
		<line class="st2" x1="122.88" y1="210.78" x2="117.89" y2="205.78"/>
		<line class="st2" x1="122.27" y1="212.06" x2="117.89" y2="207.68"/>
		<line class="st2" x1="122.27" y1="213.95" x2="117.1" y2="208.78"/>
		<line class="st2" x1="121.53" y1="215.1" x2="117.1" y2="210.67"/>
		<line class="st2" x1="121.53" y1="216.99" x2="117.1" y2="212.56"/>
		<line class="st2" x1="120.76" y1="218.12" x2="117.1" y2="214.46"/>
		<line class="st2" x1="120.76" y1="220.01" x2="117.1" y2="216.35"/>
		<line class="st2" x1="120" y1="221.15" x2="117.1" y2="218.24"/>
		<line class="st2" x1="119.13" y1="222.16" x2="117.1" y2="220.13"/>
	</g>
	<g>
		<polygon class="st0" points="146.05,46.25 150.02,44.63 173.84,45.69 191.71,48.77 207.39,54.19 217.74,61.02 219.24,64.55 
			216.66,77.03 213.86,80.72 211.49,81.39 204.02,82.55 199.05,82 181.15,77.03 159.41,69.67 146.84,67.36 141.52,66.76 
			140.12,64.55 140.12,61.02 144.11,48.18 		"/>
		<polygon class="st0" points="204.56,8.49 209.77,12.22 218.51,20 227.91,30.73 234.34,40.75 235.54,43.75 230.91,45.59 
			228.78,47.41 224.42,42.45 220.19,38.92 213.66,34.62 215.6,38.92 217.15,47.41 218.51,55.32 218.51,61.44 212.47,57 
			205.96,53.53 195.49,49.77 184.73,47.41 172.24,45.59 161.09,44.84 150.94,44.84 148.16,45.59 150.94,39.88 158.58,30.73 
			166.9,23.58 172.24,20 176.94,15.9 184.73,11.48 192.62,9.17 199.79,8.49 		"/>
		<polygon class="st0" points="238.52,43.97 242.45,45.52 245.36,49.15 246.07,53.53 244.66,58.18 241.48,61.53 238.52,62.94 
			233.44,62.94 229.37,61.03 227.3,58.18 226.28,53.53 227.3,50.71 229.37,47.13 232.09,45.52 235.54,43.97 		"/>
	</g>
</g>
</svg>
